<svg width="28" height="77" viewBox="0 0 28 77" fill="none" xmlns="http://www.w3.org/2000/svg">
<path d="M26.334 29.7034C27.179 29.7034 27.8611 30.3883 27.8611 31.2305V37.3391L27.8446 67.8872L27.8335 75.4676C27.8335 76.8677 26.1048 77.5304 25.1631 76.4949C23.4261 74.5894 21.7775 72.5928 20.2061 70.5134C12.9958 60.9529 7.51414 49.6334 4.09259 37.3391C3.39116 34.8344 2.7781 32.2827 2.2755 29.7007C0.778752 22.3854 0 14.7773 0 7.05055C0 6.44025 0.0165685 5.82995 0.0165685 5.20308C5.83788 2.97729 12.2502 1.36731 18.5133 0.560945C19.4246 0.444961 20.2255 1.16848 20.2255 2.08807V6.71088C20.2255 7.47583 19.6621 8.10822 18.9055 8.21316C15.564 8.67157 12.1756 9.37852 8.86452 10.3174C8.17966 10.5108 7.71573 11.1625 7.7461 11.875C8.01397 17.9724 8.78996 23.9318 10.052 29.7062C10.6015 32.302 11.2588 34.8371 12.021 37.3446C13.4459 42.1055 15.2105 46.6979 17.2955 51.0639C17.9997 52.5413 20.2117 52.058 20.2144 50.4205L20.2255 37.3446V31.2361C20.2255 30.391 20.9103 29.7089 21.7526 29.7089H26.334V29.7034Z" fill="url(#paint0_linear_262_1193)"/>
<defs>
<linearGradient id="paint0_linear_262_1193" x1="5.17512" y1="45.8308" x2="35.5824" y2="28.2757" gradientUnits="userSpaceOnUse">
<stop stop-color="#67CAD5"/>
<stop offset="0.23" stop-color="#5192BD"/>
<stop offset="0.44" stop-color="#3F63AA"/>
<stop offset="0.55" stop-color="#3952A3"/>
<stop offset="1" stop-color="#323C77"/>
</linearGradient>
</defs>
</svg>
