<svg width="29" height="68" viewBox="0 0 29 68" fill="none" xmlns="http://www.w3.org/2000/svg">
<path d="M28.6921 7.02297C28.6921 14.7663 27.9133 22.3743 26.4166 29.7062C25.8974 32.2883 25.2871 34.8372 24.5829 37.3446C21.6198 47.9903 17.124 57.8932 11.2916 66.5534C10.4494 67.8044 8.48316 67.1941 8.48316 65.6863V57.0261C8.48316 56.7693 8.54944 56.518 8.67371 56.2943C11.9765 50.4177 14.6773 44.0552 16.6849 37.3419C17.4499 34.8372 18.0905 32.3021 18.6567 29.7035C19.9159 23.8877 20.6947 17.8427 20.9625 11.6844C20.9929 10.9692 20.5262 10.312 19.8358 10.1214C16.7843 9.28191 13.5644 8.64952 10.2202 8.227C9.30886 8.11102 8.49973 8.8373 8.49973 9.75689V28.1708C8.49973 29.0158 7.81487 29.7035 6.96708 29.7035H2.39398C1.54895 29.7035 0.861328 29.0186 0.861328 28.1708V1.54133C0.861328 0.68249 1.56828 -0.0189405 2.42712 0.000390206C4.48446 0.0473363 6.51143 0.166081 8.49973 0.359388C15.398 0.994541 21.8849 2.45263 27.7034 4.66738C28.2944 4.89383 28.6893 5.46547 28.6921 6.09786C28.6921 6.40439 28.6921 6.71092 28.6921 7.01745V7.02297Z" fill="url(#paint0_linear_262_1194)"/>
<defs>
<linearGradient id="paint0_linear_262_1194" x1="-6.15297" y1="40.7551" x2="35.1596" y2="16.9037" gradientUnits="userSpaceOnUse">
<stop stop-color="#67CAD5"/>
<stop offset="0.23" stop-color="#5192BD"/>
<stop offset="0.44" stop-color="#3F63AA"/>
<stop offset="0.55" stop-color="#3952A3"/>
<stop offset="1" stop-color="#323C77"/>
</linearGradient>
</defs>
</svg>
