<svg width="56" height="78" viewBox="0 0 56 78" fill="none" xmlns="http://www.w3.org/2000/svg">
<path d="M26.334 30.2035C27.179 30.2035 27.8611 30.8884 27.8611 31.7307V37.8392L27.8446 68.3873L27.8335 75.9677C27.8335 77.3678 26.1048 78.0306 25.1631 76.995C23.4261 75.0895 21.7775 73.0929 20.2061 71.0135C12.9958 61.4531 7.51414 50.1335 4.09259 37.8392C3.39116 35.3345 2.7781 32.7828 2.2755 30.2008C0.778752 22.8855 0 15.2774 0 7.55067C0 6.94037 0.0165685 6.33007 0.0165685 5.70321C5.83788 3.47741 12.2502 1.86744 18.5133 1.06107C19.4246 0.945083 20.2255 1.6686 20.2255 2.5882V7.211C20.2255 7.97595 19.6621 8.60834 18.9055 8.71328C15.564 9.17169 12.1756 9.87865 8.86452 10.8176C8.17966 11.0109 7.71573 11.6626 7.7461 12.3751C8.01397 18.4725 8.78996 24.4319 10.052 30.2063C10.6015 32.8021 11.2588 35.3372 12.021 37.8447C13.4459 42.6056 15.2105 47.198 17.2955 51.564C17.9997 53.0414 20.2117 52.5582 20.2144 50.9206L20.2255 37.8447V31.7362C20.2255 30.8912 20.9103 30.2091 21.7526 30.2091H26.334V30.2035Z" fill="url(#paint0_linear_264_1227)"/>
<path d="M55.6921 7.52297C55.6921 15.2663 54.9133 22.8743 53.4166 30.2062C52.8974 32.7883 52.2871 35.3372 51.5829 37.8446C48.6198 48.4903 44.124 58.3932 38.2916 67.0534C37.4494 68.3044 35.4832 67.6941 35.4832 66.1863V57.5261C35.4832 57.2693 35.5494 57.018 35.6737 56.7943C38.9765 50.9177 41.6773 44.5552 43.6849 37.8419C44.4499 35.3372 45.0905 32.8021 45.6567 30.2035C46.9159 24.3877 47.6947 18.3427 47.9625 12.1844C47.9929 11.4692 47.5262 10.812 46.8358 10.6214C43.7843 9.78191 40.5644 9.14952 37.2202 8.727C36.3089 8.61102 35.4997 9.3373 35.4997 10.2569V28.6708C35.4997 29.5158 34.8149 30.2035 33.9671 30.2035H29.394C28.549 30.2035 27.8613 29.5186 27.8613 28.6708V2.04133C27.8613 1.18249 28.5683 0.481059 29.4271 0.50039C31.4845 0.547336 33.5114 0.666081 35.4997 0.859388C42.398 1.49454 48.8849 2.95263 54.7034 5.16738C55.2944 5.39383 55.6893 5.96547 55.6921 6.59786C55.6921 6.90439 55.6921 7.21092 55.6921 7.51745V7.52297Z" fill="url(#paint1_linear_264_1227)"/>
<defs>
<linearGradient id="paint0_linear_264_1227" x1="5.17512" y1="46.3309" x2="35.5824" y2="28.7758" gradientUnits="userSpaceOnUse">
<stop stop-color="#67CAD5"/>
<stop offset="0.23" stop-color="#5192BD"/>
<stop offset="0.44" stop-color="#3F63AA"/>
<stop offset="0.55" stop-color="#3952A3"/>
<stop offset="1" stop-color="#323C77"/>
</linearGradient>
<linearGradient id="paint1_linear_264_1227" x1="20.847" y1="41.2551" x2="62.1596" y2="17.4037" gradientUnits="userSpaceOnUse">
<stop stop-color="#67CAD5"/>
<stop offset="0.23" stop-color="#5192BD"/>
<stop offset="0.44" stop-color="#3F63AA"/>
<stop offset="0.55" stop-color="#3952A3"/>
<stop offset="1" stop-color="#323C77"/>
</linearGradient>
</defs>
</svg>
