<svg width="15" height="15" viewBox="0 0 15 15" fill="none" xmlns="http://www.w3.org/2000/svg">
<path d="M10.6361 10.6657C10.4787 10.6657 10.3277 10.6054 10.2165 10.4983C10.1052 10.3911 10.0426 10.2458 10.0426 10.0942V4.95137H4.70138C4.54398 4.95137 4.39303 4.89116 4.28173 4.784C4.17044 4.67684 4.10791 4.53149 4.10791 4.37994C4.10791 4.22839 4.17044 4.08304 4.28173 3.97588C4.39303 3.86871 4.54398 3.80851 4.70138 3.80851H10.6361C10.7935 3.80851 10.9445 3.86871 11.0557 3.97588C11.167 4.08304 11.2296 4.22839 11.2296 4.37994V10.0942C11.2296 10.2458 11.167 10.3911 11.0557 10.4983C10.9445 10.6054 10.7935 10.6657 10.6361 10.6657Z" fill="#1D1E2C"/>
<path d="M4.70126 10.6656C4.5839 10.6655 4.46918 10.632 4.37161 10.5692C4.27403 10.5064 4.19799 10.4172 4.15308 10.3128C4.10817 10.2084 4.09642 10.0935 4.11931 9.98268C4.1422 9.87185 4.1987 9.77004 4.28167 9.69013L10.2164 3.97584C10.328 3.8703 10.4784 3.81146 10.6349 3.81214C10.7913 3.81283 10.9411 3.87297 11.0518 3.97949C11.1624 4.086 11.2249 4.23028 11.2256 4.38092C11.2263 4.53155 11.1652 4.67637 11.0556 4.78384L5.12084 10.4981C5.06581 10.5513 5.00041 10.5934 4.9284 10.6222C4.8564 10.6509 4.7792 10.6656 4.70126 10.6656Z" fill="#1D1E2C"/>
</svg>
