<svg width="16" height="15" viewBox="0 0 16 15" fill="none" xmlns="http://www.w3.org/2000/svg">
<path d="M11.0443 10.6654C10.8869 10.6654 10.736 10.6052 10.6247 10.4981C10.5134 10.3909 10.4508 10.2456 10.4508 10.094V4.95115H5.10959C4.95219 4.95115 4.80123 4.89094 4.68994 4.78378C4.57864 4.67661 4.51611 4.53127 4.51611 4.37972C4.51611 4.22816 4.57864 4.08282 4.68994 3.97566C4.80123 3.86849 4.95219 3.80829 5.10959 3.80829H11.0443C11.2017 3.80829 11.3527 3.86849 11.464 3.97566C11.5752 4.08282 11.6378 4.22816 11.6378 4.37972V10.094C11.6378 10.2456 11.5752 10.3909 11.464 10.4981C11.3527 10.6052 11.2017 10.6654 11.0443 10.6654Z" fill="white"/>
<path d="M5.10946 10.6653C4.9921 10.6653 4.87738 10.6318 4.77981 10.569C4.68224 10.5062 4.60619 10.4169 4.56128 10.3125C4.51637 10.2081 4.50462 10.0933 4.52751 9.98244C4.5504 9.87161 4.6069 9.7698 4.68987 9.68988L10.6246 3.9756C10.7362 3.87005 10.8866 3.81121 11.0431 3.8119C11.1995 3.81258 11.3494 3.87272 11.46 3.97924C11.5706 4.08576 11.6331 4.23003 11.6338 4.38067C11.6345 4.53131 11.5734 4.67612 11.4638 4.7836L5.52904 10.4979C5.47401 10.551 5.40861 10.5932 5.3366 10.6219C5.2646 10.6506 5.1874 10.6654 5.10946 10.6653V10.6653Z" fill="white"/>
</svg>
