<svg width="21" height="21" viewBox="0 0 21 21" fill="none" xmlns="http://www.w3.org/2000/svg">
<path d="M2.94389 8.5C2.77605 9.1534 2.69138 9.82538 2.69189 10.5C2.69189 11.19 2.77989 11.86 2.94389 12.5H5.79189C5.65707 11.1701 5.65707 9.82993 5.79189 8.5H2.94389ZM3.76189 6.5H6.10789C6.37389 5.283 6.75789 4.193 7.22889 3.286C5.77707 3.98542 4.56911 5.10523 3.76189 6.5V6.5ZM18.4399 8.5H15.5919C15.7267 9.82993 15.7267 11.1701 15.5919 12.5H18.4399C18.7766 11.1879 18.7766 9.81208 18.4399 8.5V8.5ZM17.6219 6.5C16.8147 5.10523 15.6067 3.98542 14.1549 3.286C14.6269 4.193 15.0099 5.283 15.2759 6.5H17.6219ZM7.80389 8.5C7.72897 9.16403 7.69158 9.83176 7.69189 10.5C7.69189 11.185 7.72989 11.855 7.80389 12.5H13.5799C13.7305 11.1709 13.7305 9.82908 13.5799 8.5H7.80389ZM8.16189 6.5H13.2219C13.0399 5.7483 12.7774 5.01841 12.4389 4.323C11.8109 3.068 11.1389 2.5 10.6919 2.5C10.2439 2.5 9.57289 3.068 8.94489 4.323C8.62989 4.955 8.36489 5.69 8.16189 6.5ZM3.76189 14.5C4.56911 15.8948 5.77707 17.0146 7.22889 17.714C6.75689 16.807 6.37389 15.717 6.10789 14.5H3.76189V14.5ZM17.6219 14.5H15.2759C15.0099 15.717 14.6259 16.807 14.1549 17.714C15.6067 17.0146 16.8147 15.8948 17.6219 14.5ZM8.16189 14.5C8.36489 15.31 8.62989 16.045 8.94489 16.677C9.57289 17.932 10.2449 18.5 10.6919 18.5C11.1399 18.5 11.8109 17.932 12.4389 16.677C12.7539 16.045 13.0189 15.31 13.2219 14.5H8.16189V14.5ZM10.6919 20.5C5.16889 20.5 0.691895 16.023 0.691895 10.5C0.691895 4.977 5.16889 0.5 10.6919 0.5C16.2149 0.5 20.6919 4.977 20.6919 10.5C20.6919 16.023 16.2149 20.5 10.6919 20.5Z" fill="#C6C6C6"/>
</svg>
