<svg width="8" height="8" viewBox="0 0 8 8" fill="none" xmlns="http://www.w3.org/2000/svg">
<path d="M1.10946 7.66531C0.992099 7.66529 0.877382 7.63176 0.77981 7.56897C0.682237 7.50618 0.60619 7.41694 0.561282 7.31254C0.516374 7.20814 0.504621 7.09327 0.52751 6.98244C0.550399 6.8716 0.606901 6.7698 0.689874 6.68988L6.62459 0.975596C6.73622 0.870047 6.88662 0.811213 7.04306 0.811896C7.19951 0.812578 7.34935 0.872721 7.45998 0.979239C7.5706 1.08576 7.63307 1.23003 7.63378 1.38067C7.63449 1.53131 7.57338 1.67612 7.46376 1.7836L1.52904 7.49788C1.47401 7.55103 1.40861 7.59318 1.3366 7.62191C1.2646 7.65065 1.1874 7.6654 1.10946 7.66531Z" fill="white"/>
</svg>
