<svg width="39" height="31" viewBox="0 0 39 31" fill="none" xmlns="http://www.w3.org/2000/svg">
<path d="M38.4049 3.7283C37.0132 4.34496 35.5182 4.76163 33.9465 4.94997C35.5682 3.97962 36.7814 2.45241 37.3599 0.653299C35.8363 1.55828 34.1688 2.19529 32.4299 2.53663C31.2605 1.28807 29.7116 0.460509 28.0237 0.182422C26.3358 -0.0956647 24.6034 0.191285 23.0953 0.99872C21.5872 1.80616 20.3878 3.0889 19.6834 4.64781C18.9791 6.20671 18.8091 7.95455 19.1999 9.61997C16.1127 9.46496 13.0926 8.66255 10.3356 7.26481C7.57856 5.86707 5.14626 3.90523 3.19652 1.50663C2.52986 2.65663 2.14652 3.98997 2.14652 5.40997C2.14578 6.68829 2.46058 7.94704 3.06299 9.07452C3.6654 10.202 4.53679 11.1634 5.59986 11.8733C4.36698 11.8341 3.16131 11.5009 2.08319 10.9016V11.0016C2.08307 12.7945 2.70324 14.5323 3.8385 15.92C4.97375 17.3077 6.55414 18.2598 8.31152 18.615C7.16783 18.9245 5.96875 18.9701 4.80486 18.7483C5.30069 20.291 6.26652 21.64 7.56714 22.6065C8.86775 23.573 10.4381 24.1086 12.0582 24.1383C9.30791 26.2973 5.91134 27.4684 2.41486 27.4633C1.79549 27.4635 1.17665 27.4273 0.561523 27.355C4.11065 29.6369 8.24209 30.848 12.4615 30.8433C26.7449 30.8433 34.5532 19.0133 34.5532 8.7533C34.5532 8.41996 34.5449 8.0833 34.5299 7.74996C36.0487 6.65159 37.3597 5.29146 38.4015 3.7333L38.4049 3.7283Z" fill="white"/>
</svg>
